<svg xmlns="http://www.w3.org/2000/svg" viewBox="0 0 640 160" role="img" aria-labelledby="title desc">
  <title id="title">Flex App Studios</title><desc id="desc">A stylised F made from flexible simulation paths.</desc>
  <defs><linearGradient id="g" x1="18" y1="20" x2="132" y2="140" gradientUnits="userSpaceOnUse"><stop stop-color="#FF3E98"/><stop offset=".48" stop-color="#B657FF"/><stop offset="1" stop-color="#20D9FF"/></linearGradient><filter id="s" x="-30%" y="-30%" width="160%" height="160%"><feGaussianBlur stdDeviation="5" result="b"/><feMerge><feMergeNode in="b"/><feMergeNode in="SourceGraphic"/></feMerge></filter></defs>
  <g transform="translate(14 14)"><path d="M65 0C29 0 0 29 0 65s29 65 65 65h44a13 13 0 1 0 0-26H65a39 39 0 1 1 0-78h60a13 13 0 1 0 0-26H65Z" fill="#111324" stroke="#323650" stroke-width="2"/><path d="M35 91V35h66" fill="none" stroke="url(#g)" stroke-width="18" stroke-linecap="round" stroke-linejoin="round" filter="url(#s)"/><path d="M35 65h48" stroke="url(#g)" stroke-width="18" stroke-linecap="round" filter="url(#s)"/><circle cx="103" cy="35" r="7" fill="#20D9FF"/><circle cx="83" cy="65" r="5" fill="#fff"/></g>
  <g fill="#F7F8FF"><text x="170" y="69" font-family="Arial, Helvetica, sans-serif" font-size="47" font-weight="700" letter-spacing="-1.6">FLEX</text><text x="172" y="105" font-family="Arial, Helvetica, sans-serif" font-size="18" font-weight="700" letter-spacing="6.3" fill="#C9CCDD">APP STUDIOS</text></g>
</svg>
